<svg width="124" height="24" viewBox="0 0 124 24" fill="none" xmlns="http://www.w3.org/2000/svg">
<path d="M6 10V13" stroke="#365314" stroke-width="2" stroke-linecap="round" stroke-linejoin="round"/>
<path d="M10 6V17" stroke="#365314" stroke-width="2" stroke-linecap="round" stroke-linejoin="round"/>
<path d="M14 3V21" stroke="#365314" stroke-width="2" stroke-linecap="round" stroke-linejoin="round"/>
<path d="M18 8V15" stroke="#365314" stroke-width="2" stroke-linecap="round" stroke-linejoin="round"/>
<path d="M22 5V18" stroke="#365314" stroke-width="2" stroke-linecap="round" stroke-linejoin="round"/>
<path d="M26 10V13" stroke="#365314" stroke-width="2" stroke-linecap="round" stroke-linejoin="round"/>
<path d="M37.576 16.084C37.024 16.084 36.528 15.988 36.088 15.796C35.656 15.596 35.316 15.324 35.068 14.98C34.82 14.628 34.692 14.224 34.684 13.768H35.848C35.888 14.16 36.048 14.492 36.328 14.764C36.616 15.028 37.032 15.16 37.576 15.16C38.096 15.16 38.504 15.032 38.8 14.776C39.104 14.512 39.256 14.176 39.256 13.768C39.256 13.448 39.168 13.188 38.992 12.988C38.816 12.788 38.596 12.636 38.332 12.532C38.068 12.428 37.712 12.316 37.264 12.196C36.712 12.052 36.268 11.908 35.932 11.764C35.604 11.62 35.32 11.396 35.08 11.092C34.848 10.78 34.732 10.364 34.732 9.844C34.732 9.388 34.848 8.984 35.08 8.632C35.312 8.28 35.636 8.008 36.052 7.816C36.476 7.624 36.96 7.528 37.504 7.528C38.288 7.528 38.928 7.724 39.424 8.116C39.928 8.508 40.212 9.028 40.276 9.676H39.076C39.036 9.356 38.868 9.076 38.572 8.836C38.276 8.588 37.884 8.464 37.396 8.464C36.94 8.464 36.568 8.584 36.28 8.824C35.992 9.056 35.848 9.384 35.848 9.808C35.848 10.112 35.932 10.36 36.1 10.552C36.276 10.744 36.488 10.892 36.736 10.996C36.992 11.092 37.348 11.204 37.804 11.332C38.356 11.484 38.8 11.636 39.136 11.788C39.472 11.932 39.76 12.16 40 12.472C40.24 12.776 40.36 13.192 40.36 13.72C40.36 14.128 40.252 14.512 40.036 14.872C39.82 15.232 39.5 15.524 39.076 15.748C38.652 15.972 38.152 16.084 37.576 16.084ZM47.559 10.084C47.559 10.78 47.319 11.36 46.839 11.824C46.367 12.28 45.643 12.508 44.667 12.508H43.059V16H41.967V7.636H44.667C45.611 7.636 46.327 7.864 46.815 8.32C47.311 8.776 47.559 9.364 47.559 10.084ZM44.667 11.608C45.275 11.608 45.723 11.476 46.011 11.212C46.299 10.948 46.443 10.572 46.443 10.084C46.443 9.052 45.851 8.536 44.667 8.536H43.059V11.608H44.667ZM50.0082 8.524V11.32H53.0562V12.22H50.0082V15.1H53.4162V16H48.9162V7.624H53.4162V8.524H50.0082ZM56.1605 8.524V11.32H59.2085V12.22H56.1605V15.1H59.5685V16H55.0685V7.624H59.5685V8.524H56.1605ZM60.8129 11.812C60.8129 10.996 60.9969 10.264 61.3649 9.616C61.7329 8.96 62.2329 8.448 62.8649 8.08C63.5049 7.712 64.2129 7.528 64.9889 7.528C65.9009 7.528 66.6969 7.748 67.3769 8.188C68.0569 8.628 68.5529 9.252 68.8649 10.06H67.5569C67.3249 9.556 66.9889 9.168 66.5489 8.896C66.1169 8.624 65.5969 8.488 64.9889 8.488C64.4049 8.488 63.8809 8.624 63.4169 8.896C62.9529 9.168 62.5889 9.556 62.3249 10.06C62.0609 10.556 61.9289 11.14 61.9289 11.812C61.9289 12.476 62.0609 13.06 62.3249 13.564C62.5889 14.06 62.9529 14.444 63.4169 14.716C63.8809 14.988 64.4049 15.124 64.9889 15.124C65.5969 15.124 66.1169 14.992 66.5489 14.728C66.9889 14.456 67.3249 14.068 67.5569 13.564H68.8649C68.5529 14.364 68.0569 14.984 67.3769 15.424C66.6969 15.856 65.9009 16.072 64.9889 16.072C64.2129 16.072 63.5049 15.892 62.8649 15.532C62.2329 15.164 61.7329 14.656 61.3649 14.008C60.9969 13.36 60.8129 12.628 60.8129 11.812ZM76.9344 7.636V16H75.8424V12.208H71.5824V16H70.4904V7.636H71.5824V11.308H75.8424V7.636H76.9344ZM88.5742 16H87.4822L83.0902 9.34V16H81.9982V7.624H83.0902L87.4822 14.272V7.624H88.5742V16ZM94.2277 16.084C93.4517 16.084 92.7437 15.904 92.1037 15.544C91.4637 15.176 90.9557 14.668 90.5797 14.02C90.2117 13.364 90.0277 12.628 90.0277 11.812C90.0277 10.996 90.2117 10.264 90.5797 9.616C90.9557 8.96 91.4637 8.452 92.1037 8.092C92.7437 7.724 93.4517 7.54 94.2277 7.54C95.0117 7.54 95.7237 7.724 96.3637 8.092C97.0037 8.452 97.5077 8.956 97.8757 9.604C98.2437 10.252 98.4277 10.988 98.4277 11.812C98.4277 12.636 98.2437 13.372 97.8757 14.02C97.5077 14.668 97.0037 15.176 96.3637 15.544C95.7237 15.904 95.0117 16.084 94.2277 16.084ZM94.2277 15.136C94.8117 15.136 95.3357 15 95.7997 14.728C96.2717 14.456 96.6397 14.068 96.9037 13.564C97.1757 13.06 97.3117 12.476 97.3117 11.812C97.3117 11.14 97.1757 10.556 96.9037 10.06C96.6397 9.556 96.2757 9.168 95.8117 8.896C95.3477 8.624 94.8197 8.488 94.2277 8.488C93.6357 8.488 93.1077 8.624 92.6437 8.896C92.1797 9.168 91.8117 9.556 91.5397 10.06C91.2757 10.556 91.1437 11.14 91.1437 11.812C91.1437 12.476 91.2757 13.06 91.5397 13.564C91.8117 14.068 92.1797 14.456 92.6437 14.728C93.1157 15 93.6437 15.136 94.2277 15.136ZM105.017 7.636V8.524H102.737V16H101.645V8.524H99.3533V7.636H105.017ZM107.454 8.524V11.32H110.502V12.22H107.454V15.1H110.862V16H106.362V7.624H110.862V8.524H107.454Z" fill="#4D7C0F"/>
</svg>
